<svg width="15" height="15" viewBox="0 0 15 15" fill="none" xmlns="http://www.w3.org/2000/svg">
<path d="M3.72171 10.9984C3.8506 10.9984 3.95831 10.9542 4.04483 10.8658C4.13138 10.7775 4.17465 10.667 4.17465 10.5344V6.1546C4.17465 6.03306 4.12975 5.92776 4.03996 5.83869C3.95017 5.74963 3.84396 5.7051 3.72133 5.7051C3.58765 5.7051 3.47754 5.74963 3.391 5.83869C3.30447 5.92776 3.26121 6.03306 3.26121 6.1546V10.5344C3.26121 10.667 3.30574 10.7775 3.39479 10.8658C3.48386 10.9542 3.59283 10.9984 3.72171 10.9984ZM7.0326 10.9984C7.16148 10.9984 7.26919 10.9542 7.35573 10.8658C7.44226 10.7775 7.48552 10.667 7.48552 10.5344V3.50238C7.48552 3.38082 7.44063 3.27551 7.35085 3.18646C7.26106 3.09739 7.15485 3.05285 7.03223 3.05285C6.89855 3.05285 6.78844 3.09739 6.7019 3.18646C6.61535 3.27551 6.57208 3.38082 6.57208 3.50238V10.5344C6.57208 10.667 6.61662 10.7775 6.70569 10.8658C6.79476 10.9542 6.90373 10.9984 7.0326 10.9984ZM10.3371 10.9984C10.466 10.9984 10.5737 10.9542 10.6602 10.8658C10.7467 10.7775 10.79 10.667 10.79 10.5344V8.74756C10.79 8.63122 10.7451 8.52721 10.6553 8.43554C10.5655 8.34387 10.4593 8.29804 10.3367 8.29804C10.203 8.29804 10.0929 8.34387 10.0064 8.43554C9.91983 8.52721 9.87656 8.63122 9.87656 8.74756V10.5344C9.87656 10.667 9.9211 10.7775 10.0102 10.8658C10.0992 10.9542 10.2082 10.9984 10.3371 10.9984ZM1.16796 14.0512C0.854083 14.0512 0.580959 13.935 0.348584 13.7026C0.116195 13.4703 0 13.1971 0 12.8833V1.16796C0 0.854084 0.116195 0.580958 0.348584 0.348583C0.580959 0.116194 0.854083 0 1.16796 0H12.8833C13.1971 0 13.4703 0.116194 13.7026 0.348583C13.935 0.580958 14.0512 0.854084 14.0512 1.16796V12.8833C14.0512 13.1971 13.935 13.4703 13.7026 13.7026C13.4703 13.935 13.1971 14.0512 12.8833 14.0512H1.16796ZM1.16985 13.1378H12.8814C12.9455 13.1378 13.0042 13.1111 13.0576 13.0576C13.1111 13.0042 13.1378 12.9455 13.1378 12.8814V1.16985C13.1378 1.10576 13.1111 1.04699 13.0576 0.993562C13.0042 0.940145 12.9455 0.913438 12.8814 0.913438H1.16985C1.10576 0.913438 1.04699 0.940145 0.993563 0.993562C0.940146 1.04699 0.913438 1.10576 0.913438 1.16985V12.8814C0.913438 12.9455 0.940146 13.0042 0.993563 13.0576C1.04699 13.1111 1.10576 13.1378 1.16985 13.1378Z" fill="#56616B"/>
</svg>
