<svg width="15" height="15" viewBox="0 0 15 15" fill="none" xmlns="http://www.w3.org/2000/svg">
<path d="M10.0304 7.38936L6.96954 4.32848C6.89154 4.25049 6.83651 4.16788 6.80446 4.08063C6.77242 3.99338 6.7564 3.8999 6.7564 3.80019C6.7564 3.70047 6.77242 3.60733 6.80446 3.52079C6.83651 3.43427 6.89154 3.352 6.96954 3.274L10.0304 0.213146C10.1084 0.13516 10.191 0.0801398 10.2782 0.0480843C10.3655 0.0160287 10.459 0 10.5587 0C10.6584 0 10.7515 0.0160287 10.8381 0.0480843C10.9246 0.0801398 11.0069 0.13516 11.0849 0.213146L14.1457 3.274C14.2237 3.352 14.2788 3.43463 14.3108 3.52188C14.3428 3.60913 14.3589 3.70261 14.3589 3.80231C14.3589 3.90204 14.3428 3.99516 14.3108 4.08169C14.2788 4.16823 14.2237 4.25049 14.1457 4.32848L11.0849 7.38936C11.0069 7.46734 10.9243 7.52236 10.837 7.55442C10.7498 7.58646 10.6563 7.60248 10.5566 7.60248C10.4569 7.60248 10.3637 7.58646 10.2772 7.55442C10.1906 7.52236 10.1084 7.46734 10.0304 7.38936ZM0 5.76919V1.44231C0 1.2289 0.0721805 1.05001 0.216542 0.905646C0.360903 0.761285 0.539792 0.689105 0.753208 0.689105H5.08008C5.29349 0.689105 5.47237 0.761285 5.61673 0.905646C5.76109 1.05001 5.83327 1.2289 5.83327 1.44231V5.76919C5.83327 5.98259 5.76109 6.16147 5.61673 6.30583C5.47237 6.4502 5.29349 6.52238 5.08008 6.52238H0.753208C0.539792 6.52238 0.360903 6.4502 0.216542 6.30583C0.0721805 6.16147 0 5.98259 0 5.76919ZM7.82048 13.5896V9.26277C7.82048 9.04937 7.89266 8.87049 8.03702 8.72613C8.18138 8.58177 8.36026 8.50958 8.57367 8.50958H12.9005C13.114 8.50958 13.2928 8.58177 13.4372 8.72613C13.5816 8.87049 13.6538 9.04937 13.6538 9.26277V13.5896C13.6538 13.8031 13.5816 13.982 13.4372 14.1263C13.2928 14.2707 13.114 14.3429 12.9005 14.3429H8.57367C8.36026 14.3429 8.18138 14.2707 8.03702 14.1263C7.89266 13.982 7.82048 13.8031 7.82048 13.5896ZM0 13.5896V9.26277C0 9.04937 0.0721805 8.87049 0.216542 8.72613C0.360903 8.58177 0.539792 8.50958 0.753208 8.50958H5.08008C5.29349 8.50958 5.47237 8.58177 5.61673 8.72613C5.76109 8.87049 5.83327 9.04937 5.83327 9.26277V13.5896C5.83327 13.8031 5.76109 13.982 5.61673 14.1263C5.47237 14.2707 5.29349 14.3429 5.08008 14.3429H0.753208C0.539792 14.3429 0.360903 14.2707 0.216542 14.1263C0.0721805 13.982 0 13.8031 0 13.5896ZM1.24998 5.27242H4.58331V1.93908H1.24998V5.27242ZM10.5785 6.17625L12.9326 3.82208L10.5785 1.46792L8.22429 3.82208L10.5785 6.17625ZM9.07044 13.0929H12.4038V9.75954H9.07044V13.0929ZM1.24998 13.0929H4.58331V9.75954H1.24998V13.0929Z" fill="#56616B"/>
</svg>
