<svg width="16" height="15" viewBox="0 0 16 15" fill="none" xmlns="http://www.w3.org/2000/svg">
<path d="M3.74998 9.37496H8.74998C8.92733 9.37496 9.07583 9.31513 9.19548 9.19548C9.31513 9.07583 9.37496 8.92733 9.37496 8.74998C9.37496 8.57263 9.31513 8.42413 9.19548 8.30448C9.07583 8.18483 8.92733 8.125 8.74998 8.125H3.74998C3.57263 8.125 3.42413 8.18483 3.30448 8.30448C3.18483 8.42413 3.125 8.57263 3.125 8.74998C3.125 8.92733 3.18483 9.07583 3.30448 9.19548C3.42413 9.31513 3.57263 9.37496 3.74998 9.37496ZM3.74998 6.87496H12.0833C12.2607 6.87496 12.4092 6.81513 12.5288 6.69548C12.6485 6.57583 12.7083 6.42733 12.7083 6.24998C12.7083 6.07263 12.6485 5.92413 12.5288 5.80448C12.4092 5.68483 12.2607 5.625 12.0833 5.625H3.74998C3.57263 5.625 3.42413 5.68483 3.30448 5.80448C3.18483 5.92413 3.125 6.07263 3.125 6.24998C3.125 6.42733 3.18483 6.57583 3.30448 6.69548C3.42413 6.81513 3.57263 6.87496 3.74998 6.87496ZM3.74998 4.37496H12.0833C12.2607 4.37496 12.4092 4.31513 12.5288 4.19548C12.6485 4.07583 12.7083 3.92733 12.7083 3.74998C12.7083 3.57263 12.6485 3.42413 12.5288 3.30448C12.4092 3.18483 12.2607 3.125 12.0833 3.125H3.74998C3.57263 3.125 3.42413 3.18483 3.30448 3.30448C3.18483 3.42413 3.125 3.57263 3.125 3.74998C3.125 3.92733 3.18483 4.07583 3.30448 4.19548C3.42413 4.31513 3.57263 4.37496 3.74998 4.37496ZM2.94871 12.5L1.28046 14.1682C1.04328 14.4054 0.770576 14.4591 0.462354 14.3293C0.154118 14.1994 0 13.9657 0 13.6281V1.50642C0 1.08547 0.145833 0.729167 0.4375 0.4375C0.729167 0.145833 1.08547 0 1.50642 0H14.3269C14.7478 0 15.1041 0.145833 15.3958 0.4375C15.6875 0.729167 15.8333 1.08547 15.8333 1.50642V10.9935C15.8333 11.4145 15.6875 11.7708 15.3958 12.0625C15.1041 12.3541 14.7478 12.5 14.3269 12.5H2.94871ZM2.41667 11.25H14.3269C14.391 11.25 14.4498 11.2233 14.5032 11.1699C14.5566 11.1164 14.5833 11.0577 14.5833 10.9935V1.50642C14.5833 1.44231 14.5566 1.38354 14.5032 1.3301C14.4498 1.27669 14.391 1.24998 14.3269 1.24998H1.50642C1.44231 1.24998 1.38353 1.27669 1.3301 1.3301C1.27669 1.38354 1.24998 1.44231 1.24998 1.50642V12.4038L2.41667 11.25Z" fill="#56616B"/>
</svg>
