<svg width="11" height="7" viewBox="0 0 11 7" fill="none" xmlns="http://www.w3.org/2000/svg">
<path d="M5.3395 6.02112C5.21899 6.02112 5.10681 6.00189 5.00298 5.96342C4.89913 5.92496 4.80041 5.85893 4.70683 5.76535L0.212605 1.27112C0.0741381 1.13267 0.0033048 0.958642 0.000104797 0.749025C-0.00311187 0.539408 0.0677215 0.362166 0.212605 0.217299C0.357471 0.0724322 0.533105 0 0.739505 0C0.945904 0 1.12154 0.0724322 1.2664 0.217299L5.3395 4.2904L9.4126 0.217299C9.55105 0.0788489 9.72509 0.00801556 9.9347 0.00479889C10.1443 0.00159889 10.3215 0.0724322 10.4664 0.217299C10.6113 0.362166 10.6837 0.537808 10.6837 0.744225C10.6837 0.950625 10.6113 1.12626 10.4664 1.27112L5.97218 5.76535C5.8786 5.85893 5.77988 5.92496 5.67603 5.96342C5.5722 6.00189 5.46002 6.02112 5.3395 6.02112Z" fill="#131316"/>
</svg>
