<svg width="17" height="12" viewBox="0 0 17 12" fill="none" xmlns="http://www.w3.org/2000/svg">
<path d="M0 9.98908C0 9.57061 0.106361 9.20015 0.319083 8.87769C0.53182 8.55522 0.821292 8.30294 1.1875 8.12085C1.96526 7.7422 2.7461 7.44964 3.53002 7.24317C4.31394 7.03671 5.17224 6.93348 6.10494 6.93348C7.03763 6.93348 7.8942 7.03671 8.67465 7.24317C9.45509 7.44964 10.236 7.74223 11.0174 8.12094C11.3829 8.30419 11.672 8.5569 11.8846 8.87908C12.0972 9.20126 12.2035 9.57142 12.2035 9.98954V10.56C12.2035 10.8724 12.0886 11.1474 11.8588 11.3852C11.629 11.623 11.35 11.7419 11.0216 11.7419H1.18185C0.853507 11.7419 0.574444 11.627 0.344667 11.3972C0.114889 11.1675 0 10.8884 0 10.56V9.98908ZM15.3334 11.7419H13.4911C13.5846 11.5619 13.6571 11.3726 13.7087 11.1741C13.7602 10.9756 13.786 10.7709 13.786 10.56V9.95508C13.786 9.41203 13.6626 8.89451 13.4158 8.40252C13.1691 7.91054 12.8066 7.49484 12.3285 7.15544C12.8579 7.24144 13.3613 7.36696 13.8386 7.532C14.3161 7.69703 14.7753 7.89576 15.2163 8.12819C15.6287 8.34506 15.9482 8.6059 16.175 8.91071C16.4018 9.21551 16.5151 9.54738 16.5151 9.90629V10.5576C16.5151 10.8883 16.3995 11.1683 16.1683 11.3978C15.9371 11.6272 15.6588 11.7419 15.3334 11.7419ZM6.10494 5.63135C5.32404 5.63135 4.65953 5.35731 4.11142 4.80921C3.56332 4.2611 3.28927 3.59659 3.28927 2.81569C3.28927 2.03477 3.56332 1.37026 4.11142 0.822168C4.65953 0.274057 5.32404 0 6.10494 0C6.88584 0 7.55035 0.274057 8.09846 0.822168C8.64656 1.37026 8.9206 2.03477 8.9206 2.81569C8.9206 3.59659 8.64656 4.2611 8.09846 4.80921C7.55035 5.35731 6.88584 5.63135 6.10494 5.63135ZM12.9975 2.80675C12.9975 3.58147 12.7234 4.24419 12.1753 4.7949C11.6272 5.34559 10.9627 5.62094 10.1818 5.62094C10.1033 5.62094 9.99905 5.61134 9.86911 5.59215C9.73915 5.57295 9.63212 5.55183 9.54802 5.52879C9.87263 5.14921 10.1214 4.72756 10.2943 4.26385C10.4672 3.80015 10.5536 3.31535 10.5536 2.80948C10.5536 2.30547 10.4647 1.82206 10.2868 1.35927C10.1089 0.896466 9.86266 0.471952 9.54802 0.0857302C9.65219 0.0472719 9.75849 0.0233688 9.86692 0.0140216C9.97536 0.00467433 10.0803 0 10.1818 0C10.9627 0 11.6272 0.274827 12.1753 0.824479C12.7234 1.37413 12.9975 2.03489 12.9975 2.80675ZM1.16583 10.5761H11.0376V9.99137C11.0376 9.8139 10.9941 9.65692 10.907 9.52042C10.82 9.38392 10.6797 9.26358 10.4863 9.15942C9.8044 8.81006 9.10787 8.54603 8.39673 8.36733C7.68561 8.18865 6.92227 8.09931 6.10671 8.09931C5.28881 8.09931 4.52314 8.18865 3.80971 8.36733C3.09628 8.54603 2.39875 8.81006 1.71713 9.15942C1.52107 9.26358 1.38017 9.38417 1.29444 9.52117C1.2087 9.65818 1.16583 9.81458 1.16583 9.99035V10.5761ZM6.10365 4.46552C6.55856 4.46552 6.94748 4.30449 7.2704 3.98244C7.59331 3.66038 7.75477 3.2719 7.75477 2.81698C7.75477 2.36205 7.59374 1.97313 7.27169 1.65021C6.94963 1.32729 6.56115 1.16583 6.10623 1.16583C5.65131 1.16583 5.2624 1.32686 4.93948 1.64892C4.61656 1.97097 4.4551 2.35947 4.4551 2.8144C4.4551 3.26931 4.61613 3.65823 4.93819 3.98115C5.26024 4.30406 5.64873 4.46552 6.10365 4.46552Z" fill="#56616B"/>
</svg>
