<svg width="12" height="12" viewBox="0 0 12 12" fill="none" xmlns="http://www.w3.org/2000/svg">
<path d="M5.83333 8.8125L2.875 5.875L3.47917 5.27083L5.41667 7.20833V0L6.25 0V7.20833L8.1875 5.27083L8.79167 5.875L5.83333 8.8125ZM1.35417 11.9583C0.965278 11.9583 0.6425 11.83 0.385833 11.5733C0.128611 11.3161 0 10.9931 0 10.6042L0 8.625H0.833333V10.6042C0.833333 10.7431 0.885556 10.8644 0.99 10.9683C1.09389 11.0728 1.21528 11.125 1.35417 11.125H10.3125C10.4514 11.125 10.5728 11.0728 10.6767 10.9683C10.7811 10.8644 10.8333 10.7431 10.8333 10.6042V8.625H11.6667V10.6042C11.6667 10.9931 11.5383 11.3161 11.2817 11.5733C11.0244 11.83 10.7014 11.9583 10.3125 11.9583H1.35417Z" fill="#131316"/>
</svg>
