<svg width="13" height="14" viewBox="0 0 13 14" fill="none" xmlns="http://www.w3.org/2000/svg">
<path d="M0.913437 12.7532H4.133V8.24356C4.133 8.0749 4.18952 7.93403 4.30256 7.82098C4.4156 7.70794 4.55647 7.65142 4.72515 7.65142H7.67383C7.83144 7.65142 7.96713 7.70794 8.0809 7.82098C8.19466 7.93403 8.25154 8.0749 8.25154 8.24356V12.7532H11.4711V4.94923C11.4711 4.90649 11.4618 4.86776 11.4431 4.83304C11.4244 4.79832 11.399 4.7676 11.3669 4.7409L6.34452 0.969542C6.30178 0.937487 6.25103 0.921458 6.19227 0.921458C6.13351 0.921458 6.08276 0.937487 6.04002 0.969542L1.0176 4.7409C0.985549 4.7676 0.960174 4.79832 0.941479 4.83304C0.922785 4.86776 0.913437 4.90649 0.913437 4.94923V12.7532ZM0 12.7532V4.95671C0 4.76528 0.0386111 4.58926 0.115833 4.42867C0.193055 4.26808 0.311493 4.13267 0.471146 4.02242L5.49356 0.235583C5.69852 0.0785274 5.93085 0 6.19054 0C6.45024 0 6.68372 0.0785274 6.89098 0.235583L11.9134 4.02242C12.073 4.13267 12.1915 4.26808 12.2687 4.42867C12.3459 4.58926 12.3845 4.76528 12.3845 4.95671V12.7532C12.3845 13.0014 12.2944 13.2157 12.114 13.3961C11.9337 13.5764 11.7194 13.6666 11.4711 13.6666H7.93025C7.76158 13.6666 7.62073 13.6101 7.50769 13.497C7.39463 13.384 7.3381 13.2431 7.3381 13.0745V8.56485H5.04644V13.0745C5.04644 13.2431 4.98971 13.384 4.87625 13.497C4.76279 13.6101 4.62748 13.6666 4.47031 13.6666H0.907062C0.663646 13.6666 0.451611 13.5764 0.270958 13.3961C0.0903194 13.2157 0 13.0014 0 12.7532Z" fill="#56616B"/>
</svg>
