<svg width="16" height="16" viewBox="0 0 16 16" fill="none" xmlns="http://www.w3.org/2000/svg">
<path d="M7.91692 11.875C8.09408 11.875 8.24249 11.8151 8.36215 11.6953C8.4818 11.5755 8.54163 11.4271 8.54163 11.25V7.70829C8.54163 7.53122 8.48171 7.38279 8.36188 7.263C8.24203 7.14321 8.09353 7.08331 7.91638 7.08331C7.73921 7.08331 7.5908 7.14321 7.47115 7.263C7.35149 7.38279 7.29167 7.53122 7.29167 7.70829V11.25C7.29167 11.4271 7.35158 11.5755 7.47142 11.6953C7.59126 11.8151 7.73976 11.875 7.91692 11.875ZM7.91665 5.65704C8.10735 5.65704 8.26721 5.59254 8.39621 5.46354C8.52521 5.33454 8.58971 5.17469 8.58971 4.98398C8.58971 4.79329 8.52521 4.63343 8.39621 4.50442C8.26721 4.37542 8.10735 4.31092 7.91665 4.31092C7.72594 4.31092 7.56608 4.37542 7.43708 4.50442C7.30808 4.63343 7.24358 4.79329 7.24358 4.98398C7.24358 5.17469 7.30808 5.33454 7.43708 5.46354C7.56608 5.59254 7.72594 5.65704 7.91665 5.65704ZM7.91804 15.8333C6.8231 15.8333 5.7939 15.6255 4.83046 15.21C3.867 14.7944 3.02893 14.2304 2.31625 13.5181C1.60356 12.8057 1.03934 11.968 0.623604 11.005C0.207868 10.042 0 9.01299 0 7.91804C0 6.8231 0.207778 5.7939 0.623334 4.83046C1.03889 3.867 1.60285 3.02893 2.31521 2.31625C3.02758 1.60356 3.86529 1.03934 4.82831 0.623605C5.79133 0.207869 6.82031 0 7.91525 0C9.0102 0 10.0394 0.207779 11.0028 0.623334C11.9663 1.03889 12.8044 1.60285 13.517 2.31521C14.2297 3.02758 14.794 3.86529 15.2097 4.82831C15.6254 5.79133 15.8333 6.82031 15.8333 7.91525C15.8333 9.0102 15.6255 10.0394 15.21 11.0028C14.7944 11.9663 14.2304 12.8044 13.5181 13.517C12.8057 14.2297 11.968 14.794 11.005 15.2097C10.042 15.6254 9.01299 15.8333 7.91804 15.8333ZM7.91665 14.5833C9.77776 14.5833 11.3541 13.9375 12.6458 12.6458C13.9375 11.3541 14.5833 9.77776 14.5833 7.91665C14.5833 6.05554 13.9375 4.47915 12.6458 3.18748C11.3541 1.89581 9.77776 1.24998 7.91665 1.24998C6.05553 1.24998 4.47915 1.89581 3.18748 3.18748C1.89581 4.47915 1.24998 6.05554 1.24998 7.91665C1.24998 9.77776 1.89581 11.3541 3.18748 12.6458C4.47915 13.9375 6.05553 14.5833 7.91665 14.5833Z" fill="#888F95"/>
</svg>
