<svg width="17" height="11" viewBox="0 0 17 11" fill="none" xmlns="http://www.w3.org/2000/svg">
<path d="M0.5 10.55C0.35 10.55 0.229333 10.5 0.138 10.4C0.046 10.3 0 10.1833 0 10.05C0 9.9 0.046 9.77933 0.138 9.688C0.229333 9.596 0.35 9.55 0.5 9.55H16.5C16.65 9.55 16.771 9.596 16.863 9.688C16.9543 9.77933 17 9.9 17 10.05C17 10.1833 16.9543 10.3 16.863 10.4C16.771 10.5 16.65 10.55 16.5 10.55H0.5ZM0.5 5.775C0.35 5.775 0.229333 5.725 0.138 5.625C0.046 5.525 0 5.40833 0 5.275C0 5.125 0.046 5.004 0.138 4.912C0.229333 4.82067 0.35 4.775 0.5 4.775H16.5C16.65 4.775 16.771 4.825 16.863 4.925C16.9543 5.025 17 5.14167 17 5.275C17 5.425 16.9543 5.546 16.863 5.638C16.771 5.72933 16.65 5.775 16.5 5.775H0.5ZM0.5 1C0.35 1 0.229333 0.954 0.138 0.862C0.046 0.770667 0 0.65 0 0.5C0 0.366667 0.046 0.25 0.138 0.15C0.229333 0.0500001 0.35 0 0.5 0H16.5C16.65 0 16.771 0.0500001 16.863 0.15C16.9543 0.25 17 0.366667 17 0.5C17 0.65 16.9543 0.770667 16.863 0.862C16.771 0.954 16.65 1 16.5 1H0.5Z" fill="#56616B"/>
</svg>
