<svg width="13" height="16" viewBox="0 0 13 16" fill="none" xmlns="http://www.w3.org/2000/svg">
<path d="M0.625 13.6538C0.447917 13.6538 0.299479 13.5939 0.179688 13.4741C0.0598958 13.3542 0 13.2057 0 13.0286C0 12.8514 0.0598958 12.703 0.179688 12.5833C0.299479 12.4637 0.447917 12.4039 0.625 12.4039H1.50642V6.18588C1.50642 5.06515 1.8523 4.07424 2.54406 3.21313C3.23584 2.35201 4.12393 1.80127 5.20833 1.5609V1.04167C5.20833 0.75232 5.30951 0.506376 5.51188 0.303834C5.71424 0.101279 5.95996 0 6.24904 0C6.53813 0 6.78416 0.101279 6.98715 0.303834C7.19013 0.506376 7.29163 0.75232 7.29163 1.04167V1.5609C8.37603 1.80127 9.26412 2.35201 9.9559 3.21313C10.6477 4.07424 10.9935 5.06515 10.9935 6.18588V12.4039H11.875C12.052 12.4039 12.2005 12.4638 12.3203 12.5836C12.4401 12.7035 12.5 12.852 12.5 13.0291C12.5 13.2063 12.4401 13.3547 12.3203 13.4743C12.2005 13.594 12.052 13.6538 11.875 13.6538H0.625ZM6.24856 15.9935C5.83391 15.9935 5.47942 15.846 5.18508 15.551C4.89075 15.256 4.74358 14.9014 4.74358 14.4871H7.75638C7.75638 14.9027 7.60874 15.2577 7.31346 15.552C7.01818 15.8464 6.66322 15.9935 6.24856 15.9935ZM2.75638 12.4039H9.74358V6.18588C9.74358 5.22113 9.4025 4.39767 8.72033 3.71552C8.03818 3.03335 7.21473 2.69227 6.24998 2.69227C5.28523 2.69227 4.46178 3.03335 3.77963 3.71552C3.09746 4.39767 2.75638 5.22113 2.75638 6.18588V12.4039Z" fill="#56616B"/>
</svg>
