<svg width="17" height="12" viewBox="0 0 17 12" fill="none" xmlns="http://www.w3.org/2000/svg">
<path d="M1.42227 11.9406C1.03115 11.9406 0.696319 11.8014 0.417792 11.5229C0.139264 11.2443 0 10.9095 0 10.5184V3.03125C0 2.87272 0.057118 2.73627 0.171354 2.6219C0.28559 2.50752 0.422875 2.45033 0.583208 2.45033C0.743542 2.45033 0.880729 2.50752 0.994771 2.6219C1.10881 2.73627 1.16583 2.87272 1.16583 3.03125V10.5184C1.16583 10.5825 1.19255 10.6413 1.24598 10.6947C1.2994 10.7481 1.35816 10.7748 1.42227 10.7748H13.5216C13.6801 10.7748 13.8165 10.832 13.9309 10.9465C14.0453 11.0609 14.1025 11.1974 14.1025 11.356C14.1025 11.5177 14.0453 11.6555 13.9309 11.7696C13.8165 11.8836 13.6801 11.9406 13.5216 11.9406H1.42227ZM4.30525 9.07448C3.91413 9.07448 3.5793 8.93522 3.30077 8.65669C3.02224 8.37816 2.88298 8.04333 2.88298 7.65221V1.42227C2.88298 1.03115 3.02224 0.69632 3.30077 0.417792C3.5793 0.139264 3.91413 0 4.30525 0H15.1305C15.5216 0 15.8565 0.139264 16.135 0.417792C16.4135 0.69632 16.5528 1.03115 16.5528 1.42227V7.65221C16.5528 8.04333 16.4135 8.37816 16.135 8.65669C15.8565 8.93522 15.5216 9.07448 15.1305 9.07448H4.30525ZM5.50475 7.90865C5.50475 7.49999 5.36219 7.15238 5.07706 6.86579C4.79195 6.57919 4.4492 6.4359 4.04881 6.4359V7.65221C4.04881 7.72167 4.07419 7.78177 4.12496 7.83252C4.17571 7.88327 4.23581 7.90865 4.30525 7.90865H5.50475ZM13.931 7.90865H15.1305C15.2 7.90865 15.2601 7.88327 15.3108 7.83252C15.3616 7.78177 15.387 7.72167 15.387 7.65221V6.4359C14.9819 6.4359 14.638 6.57953 14.3552 6.86679C14.0724 7.15404 13.931 7.50133 13.931 7.90865ZM9.71469 6.49435C10.2654 6.49435 10.7284 6.30413 11.1037 5.92367C11.479 5.54322 11.6666 5.0782 11.6666 4.5286C11.6666 3.98478 11.4776 3.52408 11.0997 3.1465C10.7218 2.76893 10.2599 2.58015 9.71394 2.58015C9.16797 2.58015 8.70454 2.76755 8.32367 3.14235C7.94281 3.51717 7.75237 3.98107 7.75237 4.53404C7.75237 5.08345 7.94174 5.54751 8.32048 5.92625C8.6992 6.30499 9.16394 6.49435 9.71469 6.49435ZM4.04881 2.63858C4.45383 2.63858 4.79774 2.49496 5.08054 2.20771C5.36335 1.92045 5.50475 1.57315 5.50475 1.16583H4.30525C4.23581 1.16583 4.17571 1.19122 4.12496 1.24198C4.07419 1.29273 4.04881 1.35283 4.04881 1.42227V2.63858ZM15.387 2.63858V1.42227C15.387 1.35283 15.3616 1.29273 15.3108 1.24198C15.2601 1.19122 15.2 1.16583 15.1305 1.16583H13.931C13.931 1.57449 14.0736 1.92211 14.3587 2.20871C14.6438 2.49529 14.9866 2.63858 15.387 2.63858Z" fill="white"/>
</svg>
